# Blender 3.4.1
# www.blender.org
mtllib newgrsheadfixed.mtl
o Cube
v 0.464049 0.464050 -0.500000
v 0.464049 -0.464049 -0.500000
v 0.477516 0.477516 0.500000
v 0.500000 -0.500000 -0.500000
v 0.500000 0.500000 -0.500000
v -0.500000 -0.480700 -0.480700
v -0.500000 0.480700 0.480700
v -0.500000 -0.480700 0.480700
v -0.464049 -0.464049 -0.500000
v -0.477516 -0.477516 0.500000
v -0.477516 0.477516 0.500000
v -0.464049 0.464050 -0.500000
v -0.481937 -0.500000 0.481936
v -0.467317 0.500000 0.467317
v 0.500000 0.460054 0.460055
v 0.500000 -0.460055 0.460054
v 0.500000 -0.460054 -0.460055
v -0.481937 -0.500000 -0.481937
v 0.500000 0.460055 -0.460054
v -0.467317 0.500000 -0.467317
v 0.467317 0.500000 -0.467317
v 0.481937 -0.500000 -0.481937
v 0.467317 0.500000 0.467317
v 0.481937 -0.500000 0.481936
v 0.500000 0.500000 0.500000
v -0.500000 0.500000 0.500000
v 0.500000 0.500000 -0.500000
v -0.500000 0.500000 -0.500000
v -0.500000 -0.500000 -0.500000
v -0.500000 -0.500000 0.500000
v 0.500000 -0.500000 -0.500000
v 0.500000 -0.500000 0.500000
v 0.500000 0.500000 -0.500000
v 0.500000 -0.500000 -0.500000
v 0.500000 0.500000 0.500000
v 0.500000 -0.500000 0.500000
v -0.500000 0.500000 -0.500000
v -0.500000 -0.500000 -0.500000
v -0.500000 -0.500000 0.500000
v -0.500000 0.500000 0.500000
v -0.500000 -0.480700 -0.480700
v -0.500000 -0.480700 0.480700
v -0.500000 0.480700 0.480700
v 0.459965 -0.460054 -0.460055
v -0.477516 -0.477516 0.500000
v -0.477516 0.477516 0.500000
v 0.477516 0.477516 0.500000
v 0.459965 0.460055 -0.460054
v 0.464049 -0.464049 -0.500000
v -0.464049 -0.464049 -0.500000
v 0.464049 0.464050 -0.500000
v -0.464049 0.464050 -0.500000
v 0.500000 0.460055 -0.460054
v 0.500000 -0.460054 -0.460055
v 0.500000 0.460054 0.460055
v 0.500000 -0.460055 0.460054
v 0.467317 0.500000 0.467317
v -0.467317 0.500000 0.467317
v 0.467317 0.500000 -0.467317
v -0.467317 0.500000 -0.467317
v -0.481937 -0.500000 -0.481937
v -0.481937 -0.500000 0.481936
v 0.481937 -0.500000 -0.481937
v 0.481937 -0.500000 0.481936
v 0.500000 0.500000 0.500000
v 0.500000 -0.500000 0.500000
v -0.500000 0.500000 -0.500000
v -0.500000 -0.500000 -0.500000
v -0.500000 -0.500000 0.500000
v -0.500000 0.500000 0.500000
v -0.500000 -0.480700 -0.480700
v -0.500000 -0.480700 0.480700
v -0.500000 0.480700 0.480700
v -0.500000 0.480700 -0.480700
v -0.477516 -0.477516 0.500000
v -0.477516 0.477516 0.500000
v 0.477516 0.477516 0.500000
v 0.477516 -0.477516 0.500000
v 0.464049 -0.464049 -0.500000
v -0.464049 -0.464049 -0.500000
v 0.464049 0.464050 -0.500000
v -0.464049 0.464050 -0.500000
v 0.500000 0.460055 -0.460054
v 0.500000 -0.460054 -0.460055
v 0.500000 0.460054 0.460055
v 0.500000 -0.460055 0.460054
v 0.467317 0.500000 0.467317
v -0.467317 0.500000 0.467317
v 0.467317 0.500000 -0.467317
v -0.467317 0.500000 -0.467317
v -0.481937 -0.500000 -0.481937
v -0.481937 -0.500000 0.481936
v 0.481937 -0.500000 -0.481937
v 0.481937 -0.500000 0.481936
v 0.459965 0.460054 0.460055
v 0.459965 -0.460055 0.460054
v 0.464049 -0.464049 -0.473598
v -0.464049 -0.464049 -0.473598
v 0.464049 0.464050 -0.473598
v -0.464049 0.464050 -0.473598
v -0.476469 -0.480700 -0.480700
v -0.476469 -0.480700 0.480700
v -0.476469 0.480700 0.480700
v -0.476469 0.480700 -0.480700
v -0.477516 -0.477516 0.464855
v -0.477516 0.477516 0.464856
v 0.477516 0.477516 0.464856
v 0.477516 -0.477516 0.464855
v 0.467317 0.480115 0.467317
v -0.467317 0.480115 0.467317
v 0.467317 0.480115 -0.467317
v -0.467317 0.480115 -0.467317
v -0.481937 -0.486656 -0.481937
v -0.481937 -0.486657 0.481936
v 0.481937 -0.486656 -0.481937
v 0.481937 -0.486657 0.481936
v 0.488983 0.460055 -0.460054
v 0.488983 -0.460054 -0.460055
v 0.488983 0.460054 0.460055
v 0.488983 -0.460055 0.460054
v 0.464049 -0.464049 -0.472207
v -0.464049 -0.464049 -0.472207
v 0.464049 0.464050 -0.472207
v -0.464049 0.464050 -0.472207
v 0.464049 -0.464049 -0.484807
v -0.464049 -0.464049 -0.484807
v 0.464049 0.464050 -0.484806
v -0.464049 0.464050 -0.484806
v -0.488088 -0.480700 -0.480700
v -0.488088 -0.480700 0.480700
v -0.488088 0.480700 0.480700
v -0.488088 0.480700 -0.480700
v -0.477516 -0.477516 0.478422
v -0.477516 0.477516 0.478423
v 0.477516 0.477516 0.478423
v 0.477516 -0.477516 0.478422
v 0.467317 0.496318 0.467317
v -0.467317 0.496318 0.467317
v 0.467317 0.496319 -0.467317
v -0.467317 0.496319 -0.467317
v 0.467317 0.489386 0.467317
v -0.467317 0.489386 0.467317
v 0.467317 0.489387 -0.467317
v -0.467317 0.489387 -0.467317
v -0.481937 -0.483302 -0.481937
v -0.481937 -0.483302 0.481936
v 0.481937 -0.483302 -0.481937
v 0.481937 -0.483302 0.481936
vn -0.0000 1.0000 -0.0000
vn -0.0000 -0.0000 -1.0000
vn -0.0000 1.0000 -0.0001
vn -0.0001 1.0000 -0.0000
vn -0.0000 -0.0000 -0.0000
vn -1.0000 -0.0000 -0.0000
vn 0.0003 1.0000 -0.0000
vn -0.0000 -0.0000 1.0000
vn 0.0003 1.0000 -0.0001
vn 1.0000 -0.0000 -0.0000
vn -0.0000 -1.0000 -0.0000
vt 0.616012 0.491012
vt 0.383988 0.491012
vt 0.619379 0.755621
vt 0.375000 0.500000
vt 0.625000 0.500000
vt 0.379825 0.245175
vt 0.620175 0.004825
vt 0.379825 0.004825
vt 0.383988 0.258988
vt 0.380621 0.994379
vt 0.619379 0.994379
vt 0.616012 0.258988
vt 0.129516 0.745484
vt 0.866829 0.741829
vt 0.615014 0.740014
vt 0.384986 0.740014
vt 0.384986 0.509986
vt 0.129516 0.504516
vt 0.615014 0.509986
vt 0.866829 0.508171
vt 0.633171 0.508171
vt 0.370484 0.504516
vt 0.633171 0.741829
vt 0.370484 0.745484
vt 0.625000 0.750000
vt 0.625000 0.000000
vt 0.625000 1.000000
vt 0.875000 0.750000
vt 0.625000 0.500000
vt 0.625000 0.250000
vt 0.875000 0.500000
vt 0.375000 0.250000
vt 0.125000 0.500000
vt 0.375000 0.000000
vt 0.125000 0.750000
vt 0.375000 1.000000
vt 0.375000 0.500000
vt 0.375000 0.750000
vt 0.625000 0.500000
vt 0.375000 0.500000
vt 0.625000 0.750000
vt 0.375000 0.750000
vt 0.625000 0.250000
vt 0.875000 0.500000
vt 0.375000 0.250000
vt 0.375000 1.000000
vt 0.125000 0.750000
vt 0.625000 0.000000
vt 0.875000 0.750000
vt 0.379825 0.245175
vt 0.379825 0.004825
vt 0.620175 0.004825
vt 0.384986 0.509986
vt 0.380621 0.994379
vt 0.619379 0.994379
vt 0.619379 0.755621
vt 0.615014 0.509986
vt 0.383988 0.491012
vt 0.383988 0.258988
vt 0.616012 0.491012
vt 0.616012 0.258988
vt 0.615014 0.509986
vt 0.384986 0.509986
vt 0.615014 0.740014
vt 0.384986 0.740014
vt 0.633171 0.741829
vt 0.866829 0.741829
vt 0.633171 0.508171
vt 0.866829 0.508171
vt 0.129516 0.504516
vt 0.129516 0.745484
vt 0.370484 0.504516
vt 0.370484 0.745484
vt 0.625000 0.750000
vt 0.375000 0.750000
vt 0.625000 0.250000
vt 0.875000 0.500000
vt 0.375000 0.250000
vt 0.375000 1.000000
vt 0.125000 0.750000
vt 0.625000 0.000000
vt 0.875000 0.750000
vt 0.379825 0.245175
vt 0.379825 0.004825
vt 0.620175 0.004825
vt 0.620175 0.245175
vt 0.380621 0.994379
vt 0.619379 0.994379
vt 0.619379 0.755621
vt 0.380621 0.755621
vt 0.383988 0.491012
vt 0.383988 0.258988
vt 0.616012 0.491012
vt 0.616012 0.258988
vt 0.615014 0.509986
vt 0.384986 0.509986
vt 0.615014 0.740014
vt 0.384986 0.740014
vt 0.633171 0.741829
vt 0.866829 0.741829
vt 0.633171 0.508171
vt 0.866829 0.508171
vt 0.129516 0.504516
vt 0.129516 0.745484
vt 0.370484 0.504516
vt 0.370484 0.745484
vt 0.615014 0.740014
vt 0.384986 0.740014
vt 0.383988 0.491012
vt 0.383988 0.258988
vt 0.616012 0.491012
vt 0.616012 0.258988
vt 0.379825 0.245175
vt 0.379825 0.004825
vt 0.620175 0.004825
vt 0.620175 0.245175
vt 0.380621 0.994379
vt 0.619379 0.994379
vt 0.619379 0.755621
vt 0.380621 0.755621
vt 0.633171 0.741829
vt 0.866829 0.741829
vt 0.633171 0.508171
vt 0.866829 0.508171
vt 0.129516 0.504516
vt 0.129516 0.745484
vt 0.370484 0.504516
vt 0.370484 0.745484
vt 0.615014 0.509986
vt 0.384986 0.509986
vt 0.615014 0.740014
vt 0.384986 0.740014
vt 0.383988 0.491012
vt 0.383988 0.258988
vt 0.616012 0.491012
vt 0.616012 0.258988
vt 0.383988 0.491012
vt 0.383988 0.258988
vt 0.616012 0.491012
vt 0.616012 0.258988
vt 0.379825 0.245175
vt 0.379825 0.004825
vt 0.620175 0.004825
vt 0.620175 0.245175
vt 0.380621 0.994379
vt 0.619379 0.994379
vt 0.619379 0.755621
vt 0.380621 0.755621
vt 0.633171 0.741829
vt 0.866829 0.741829
vt 0.633171 0.508171
vt 0.866829 0.508171
vt 0.633171 0.741829
vt 0.866829 0.741829
vt 0.633171 0.508171
vt 0.866829 0.508171
vt 0.129516 0.504516
vt 0.129516 0.745484
vt 0.370484 0.504516
vt 0.370484 0.745484
s 0
usemtl Material.001
f 21/21/1 20/20/2 60/69/1 59/68/2
f 11/11/1 10/10/2 45/54/1 46/55/2
f 31/37/1 2/2/2 49/58/1 34/40/2
f 24/24/3 32/38/2 36/42/1 64/73/2
f 9/9/4 29/32/2 38/45/1 50/59/2
f 23/23/5 21/21/5 59/68/5 57/66/5
f 8/8/6 6/6/6 29/32/6 30/34/6
f 7/7/6 8/8/6 30/34/6 26/26/6
f 7/7/3 26/26/2 40/48/7 43/52/2
f 12/12/1 1/1/2 51/60/1 52/61/2
f 10/10/8 11/11/8 26/27/8 30/36/8
f 14/14/1 23/23/2 57/66/1 58/67/2
f 11/11/8 3/3/8 25/25/8 26/27/8
f 29/32/3 6/6/2 41/50/7 38/45/2
f 9/9/2 2/2/2 31/37/2 29/32/2
f 30/35/1 13/13/2 62/71/3 39/47/2
f 15/15/3 25/25/2 35/41/7 55/64/2
f 1/1/2 12/12/2 28/30/2 27/29/2
f 32/38/1 16/16/2 56/65/9 36/42/2
f 22/22/5 24/24/5 64/73/5 63/72/5
f 15/15/10 19/19/10 27/29/10 25/25/10
f 17/17/10 16/16/10 32/38/10 31/37/10
f 23/23/1 14/14/1 26/28/1 25/25/1
f 21/21/1 23/23/1 25/25/1 27/29/1
f 2/2/1 9/9/2 50/59/1 49/58/2
f 20/20/1 21/21/1 27/29/1 28/31/1
f 18/18/11 13/13/11 30/35/11 29/33/11
f 22/22/11 18/18/11 29/33/11 31/37/11
f 17/17/7 31/37/2 34/40/3 54/63/2
f 24/24/11 22/22/11 31/37/11 32/38/11
f 61/70/1 63/72/2 93/105/1 91/103/2
f 62/71/5 61/70/5 91/103/5 92/104/5
f 47/56/1 46/55/2 76/88/1 77/89/2
f 60/69/1 37/44/2 67/77/3 90/102/2
f 37/43/1 52/61/2 82/94/1 67/76/2
f 40/49/1 58/67/2 88/100/3 70/82/2
f 46/55/1 45/54/2 75/87/1 76/88/2
f 51/60/1 33/39/2 5/5/4 81/93/2
f 59/68/1 60/69/2 90/102/1 89/101/2
f 34/40/1 49/58/2 79/91/1 4/4/2
f 43/52/3 40/48/2 70/81/7 73/85/2
f 50/59/4 38/45/2 68/78/1 80/92/2
f 57/66/5 59/68/5 89/101/5 87/99/5
f 38/45/3 41/50/2 71/83/7 68/78/2
f 52/61/1 51/60/2 81/93/1 82/94/2
f 58/67/1 57/66/2 87/99/1 88/100/2
f 1/1/1 27/29/2 33/39/4 51/60/2
f 28/30/1 12/12/2 52/61/1 37/43/2
f 3/3/1 11/11/2 46/55/1 47/56/2
f 26/28/1 14/14/2 58/67/3 40/49/2
f 10/10/4 30/36/2 39/46/1 45/54/2
f 20/20/1 28/31/2 37/44/3 60/69/2
f 19/19/5 15/15/5 55/64/5 53/62/5
f 13/13/5 18/18/5 61/70/5 62/71/5
f 6/6/5 8/8/5 42/51/5 41/50/5
f 16/16/5 17/17/5 54/63/5 56/65/5
f 25/25/4 3/3/2 47/56/1 35/41/2
f 18/18/1 22/22/2 63/72/1 61/70/2
f 8/8/1 7/7/2 43/52/1 42/51/2
f 27/29/9 19/19/2 53/62/1 33/39/2
f 89/101/8 90/102/8 112/124/8 111/123/8
f 77/89/11 76/88/11 106/118/11 107/119/11
f 74/86/8 71/83/8 101/113/8 104/116/8
f 94/106/2 92/104/2 114/126/2 116/128/2
f 83/95/11 85/97/11 95/107/11 48/57/11
f 80/92/10 82/94/10 100/112/10 98/110/10
f 71/83/6 74/86/6 67/76/6 68/78/6
f 74/86/6 73/85/6 70/81/6 67/76/6
f 77/89/8 78/90/8 66/75/8 65/74/8
f 78/90/8 75/87/8 69/79/8 66/75/8
f 79/91/2 81/93/2 5/5/2 4/4/2
f 82/94/2 80/92/2 68/78/2 67/76/2
f 83/95/10 84/96/10 4/4/10 5/5/10
f 86/98/10 85/97/10 65/74/10 66/75/10
f 88/100/1 90/102/1 67/77/1 70/82/1
f 92/104/11 94/106/11 66/75/11 69/80/11
f 53/62/5 55/64/5 85/97/5 83/95/5
f 45/54/4 39/46/2 69/79/1 75/87/2
f 56/65/5 54/63/5 84/96/5 86/98/5
f 35/41/4 47/56/2 77/89/1 65/74/2
f 63/72/5 64/73/5 94/106/5 93/105/5
f 33/39/9 53/62/2 83/95/1 5/5/2
f 39/47/1 62/71/2 92/104/3 69/80/2
f 41/50/5 42/51/5 72/84/5 71/83/5
f 54/63/7 34/40/2 4/4/3 84/96/2
f 49/58/1 50/59/2 80/92/1 79/91/2
f 64/73/3 36/42/2 66/75/1 94/106/2
f 42/51/1 43/52/2 73/85/1 72/84/2
f 36/42/1 56/65/2 86/98/9 66/75/2
f 55/64/3 35/41/2 65/74/7 85/97/2
f 48/57/1 95/107/1 119/131/1 117/129/1
f 84/96/8 83/95/8 48/57/8 44/53/8
f 86/98/1 84/96/1 44/53/1 96/108/1
f 85/97/2 86/98/2 96/108/2 95/107/2
f 100/112/11 99/111/11 123/135/11 124/136/11
f 79/91/1 80/92/1 98/110/1 97/109/1
f 82/94/11 81/93/11 99/111/11 100/112/11
f 81/93/6 79/91/6 97/109/6 99/111/6
f 104/116/2 101/113/2 129/141/2 132/144/2
f 71/83/1 72/84/1 102/114/1 101/113/1
f 73/85/11 74/86/11 104/116/11 103/115/11
f 72/84/2 73/85/2 103/115/2 102/114/2
f 106/118/6 105/117/6 133/145/6 134/146/6
f 76/88/10 75/87/10 105/117/10 106/118/10
f 75/87/1 78/90/1 108/120/1 105/117/1
f 78/90/6 77/89/6 107/119/6 108/120/6
f 111/123/2 112/124/2 140/152/2 139/151/2
f 87/99/6 89/101/6 111/123/6 109/121/6
f 90/102/10 88/100/10 110/122/10 112/124/10
f 88/100/2 87/99/2 109/121/2 110/122/2
f 116/128/2 114/126/2 146/158/2 148/160/2
f 92/104/10 91/103/10 113/125/10 114/126/10
f 93/105/6 94/106/6 116/128/6 115/127/6
f 91/103/8 93/105/8 115/127/8 113/125/8
f 118/130/10 117/129/10 119/131/10 120/132/10
f 44/53/2 48/57/2 117/129/2 118/130/2
f 96/108/11 44/53/11 118/130/11 120/132/11
f 95/107/8 96/108/8 120/132/8 119/131/8
f 123/135/10 121/133/10 125/137/10 127/139/10
f 99/111/6 97/109/6 121/133/6 123/135/6
f 98/110/10 100/112/10 124/136/10 122/134/10
f 97/109/1 98/110/1 122/134/1 121/133/1
f 126/138/2 128/140/2 127/139/2 125/137/2
f 122/134/6 124/136/6 128/140/6 126/138/6
f 121/133/11 122/134/11 126/138/11 125/137/11
f 124/136/1 123/135/1 127/139/1 128/140/1
f 130/142/6 131/143/6 132/144/6 129/141/6
f 101/113/11 102/114/11 130/142/11 129/141/11
f 103/115/1 104/116/1 132/144/1 131/143/1
f 102/114/8 103/115/8 131/143/8 130/142/8
f 136/148/8 135/147/8 134/146/8 133/145/8
f 105/117/11 108/120/11 136/148/11 133/145/11
f 108/120/10 107/119/10 135/147/10 136/148/10
f 107/119/1 106/118/1 134/146/1 135/147/1
f 140/152/10 138/150/10 142/154/10 144/156/10
f 109/121/10 111/123/10 139/151/10 137/149/10
f 112/124/6 110/122/6 138/150/6 140/152/6
f 110/122/8 109/121/8 137/149/8 138/150/8
f 143/155/1 144/156/1 142/154/1 141/153/1
f 138/150/2 137/149/2 141/153/2 142/154/2
f 139/151/8 140/152/8 144/156/8 143/155/8
f 137/149/6 139/151/6 143/155/6 141/153/6
f 145/157/11 147/159/11 148/160/11 146/158/11
f 114/126/10 113/125/10 145/157/10 146/158/10
f 115/127/6 116/128/6 148/160/6 147/159/6
f 113/125/8 115/127/8 147/159/8 145/157/8
